# xmcd
#
# Track frame offsets:
#   150
#   18161
#   38484
#   78471
#   102900
#   123812
#   140156
#   162822
#   195868
#   214753
#   232037
#   260545
#   272670
#   292195
#   312857
#
# Disc length: 4832 seconds
#
# Revision: 1
# Processed by: cddbd v1.5.1PL0 Copyright (c) Steve Scherf et al.
# Submitted via: Media_Universe 3.0
#
DISCID=cc12de0f
DTITLE=Sade - The Best Of Sade
DYEAR=2004
DGENRE=Blues
TTITLE0=Your Love Is King
TTITLE1=Hang On To Your Love
TTITLE2=Smooth operator (extended smooth jazz version)
TTITLE3=Jezebel
TTITLE4=The Sweetest Taboo
TTITLE5=Paradise
TTITLE6=Somebody Already Broke My Heart
TTITLE7=No Ordinary Love
TTITLE8=Kiss Of Life
TTITLE9=Immigrant
TTITLE10=Cherish The Day
TTITLE11=About Our Love
TTITLE12=By Your Side
TTITLE13=Flow
TTITLE14=Pearls(White label Mix)
EXTD=EP
EXTT0=
EXTT1=
EXTT2=
EXTT3=
EXTT4=
EXTT5=
EXTT6=
EXTT7=
EXTT8=
EXTT9=
EXTT10=
EXTT11=
EXTT12=
EXTT13=
EXTT14=
PLAYORDER=
